# xmcd
#
# Track frame offsets: 
#        150
#        14031
#        28646
#        45139
#        63643
#        81327
#        95540
#        108407
#        122606
#        137737
#        158951
#        172590
#        184288
#        200696
#
# Disc length: 2934 seconds
#
# Revision: 0
# Processed by: cddbd v1.5.2PL0 Copyright (c) Steve Scherf et al.
# Submitted via: ExactAudioCopyFreeDBPlugin 1.0
#
DISCID=ba0b740e
DTITLE=B.J. Thomas - Greatest Hits
DYEAR=1900
DGENRE=Country
TTITLE0=Raindrops Keep Falling on My Head
TTITLE1=I Just Can't Help Believing
TTITLE2=Another Somebody Done Somebody Wrong Song
TTITLE3=Best Thing that Ever Happened to Me
TTITLE4=Back Against the Wall
TTITLE5=Hooked on a Feeling
TTITLE6=I Can't Help It (If I'm Still in Love with You)
TTITLE7=I'm So Lonesome (I Could Cry)
TTITLE8=No Love at All
TTITLE9=No Other Baby
TTITLE10=The Eyes of a New York Woman
TTITLE11=To Be Loved
TTITLE12=What's Forever For
TTITLE13=Rock and Roll Lullaby
EXTD=
EXTT0=
EXTT1=
EXTT2=
EXTT3=
EXTT4=
EXTT5=
EXTT6=
EXTT7=
EXTT8=
EXTT9=
EXTT10=
EXTT11=
EXTT12=
EXTT13=
PLAYORDER=
